Genre:Comedy | Drama
Language:English
IMDb:http://www.imdb.com/title/tt0808232/
Source:DVD
Subtitles:Romana

General
Complete name :A Dog Year 2009 DvDRip H264 Feel-Free
Format : MPEG-4
Format profile : Base Media
Codec ID : mp42
File size : 679 MiB
Duration : 1h 19mn
Overall bit rate : 1 200 Kbps
Video #1
Codec ID : avc1
Codec ID/Info : Advanced Video Coding
Duration : 1h 19mn
Bit rate mode : Variable
Bit rate : 727 Kbps
Width : 720 pixels
Height : 384 pixels
Display aspect ratio : 1.875
Frame rate mode : Constant
Frame rate : 23.976 fps
Resolution : 24 bits
Colorimetry : 4:2:0
Scan type : Progressive
Bits/(Pixel*Frame) : 0.110
Stream size : 412 MiB (61%)
Audio #2
ID : 2
Format : AAC
Format/Info : Advanced Audio Codec
Format version : Version 4
Format profile : LC
Format settings, SBR : No
Codec ID : 40
Duration : 1h 19mn
Bit rate mode : Constant
Bit rate : 469 Kbps
Nominal bit rate : 480 Kbps
Channel(s) : 6 channels
Channel positions : Front: L C R, Rear: L R, LFE
Sampling rate : 48.0 KHz
Resolution : 16 bits
Stream size : 265 MiB (39%) 
Plot:
A guy suffering from a midlife crisis takes in a dog that's crazier than he is.



================================== 
http://thepiratebay.org/user/hiest
==================================